<svg width="55" height="55" viewBox="0 0 55 55" fill="none" xmlns="http://www.w3.org/2000/svg">
<path fill-rule="evenodd" clip-rule="evenodd" d="M32.9466 0.333374H21.6666C9.88451 0.333374 0.333252 9.88463 0.333252 21.6667V32.9734C0.333252 44.7554 9.88451 54.3067 21.6666 54.3067H32.9466C44.7287 54.3067 54.2799 44.7554 54.2799 32.9734V21.6667C54.2799 9.88463 44.7287 0.333374 32.9466 0.333374ZM16.6533 11.32C19.5988 11.32 21.9866 13.7079 21.9866 16.6534C21.9866 19.5989 19.5988 21.9867 16.6533 21.9867C13.7077 21.9867 11.3199 19.5989 11.3199 16.6534C11.3199 13.7079 13.7077 11.32 16.6533 11.32ZM36.3599 48.6534C43.9096 45.8339 48.9231 38.6323 48.9466 30.5734L48.8666 25.9867C48.8666 24.8934 48.6533 22.84 48.6533 22.84H44.3066C34.2436 22.8706 25.0548 28.5633 20.5466 37.56C17.2744 34.6348 13.0424 33.0122 8.65325 33H5.42659C5.18856 39.1993 8.55568 44.9775 14.0666 47.8267C16.0367 48.8762 18.2344 49.4256 20.4666 49.4267H31.5866C33.2107 49.4499 34.8262 49.1882 36.3599 48.6534Z" fill="#E2E8F0"/>
</svg>
